<mxfile host="app.diagrams.net" modified="2022-02-23T21:34:11.565Z" agent="5.0 (Windows NT 10.0; Win64; x64) AppleWebKit/537.36 (KHTML, like Gecko) Chrome/98.0.4758.102 Safari/537.36" etag="YQS2eDcWHCI9wQtrab9q" version="16.6.3" type="github">
  <diagram id="zrNJwGnwcq6ZNgj3S5Op" name="Page-1">
    <mxGraphModel dx="868" dy="496" grid="1" gridSize="10" guides="1" tooltips="1" connect="1" arrows="1" fold="1" page="1" pageScale="1" pageWidth="1169" pageHeight="827" math="0" shadow="0">
      <root>
        <mxCell id="0" />
        <mxCell id="1" parent="0" />
        <mxCell id="Ba2wZf8MUgnOTTPcZdg_-58" style="edgeStyle=orthogonalEdgeStyle;rounded=0;orthogonalLoop=1;jettySize=auto;html=1;exitX=1;exitY=0.5;exitDx=0;exitDy=0;entryX=0.5;entryY=0;entryDx=0;entryDy=0;" edge="1" parent="1" source="Ba2wZf8MUgnOTTPcZdg_-18" target="Ba2wZf8MUgnOTTPcZdg_-57">
          <mxGeometry relative="1" as="geometry" />
        </mxCell>
        <mxCell id="Ba2wZf8MUgnOTTPcZdg_-18" value="" style="ellipse;html=1;shape=startState;fillColor=#000000;strokeColor=#000000;" vertex="1" parent="1">
          <mxGeometry x="170" y="190" width="30" height="30" as="geometry" />
        </mxCell>
        <mxCell id="Ba2wZf8MUgnOTTPcZdg_-19" style="edgeStyle=orthogonalEdgeStyle;rounded=0;orthogonalLoop=1;jettySize=auto;html=1;exitX=0.25;exitY=0.5;exitDx=0;exitDy=0;exitPerimeter=0;entryX=0.5;entryY=0;entryDx=0;entryDy=0;" edge="1" parent="1" source="Ba2wZf8MUgnOTTPcZdg_-25">
          <mxGeometry relative="1" as="geometry">
            <Array as="points">
              <mxPoint x="426" y="360" />
              <mxPoint x="235" y="360" />
            </Array>
            <mxPoint x="235" y="430" as="targetPoint" />
          </mxGeometry>
        </mxCell>
        <mxCell id="Ba2wZf8MUgnOTTPcZdg_-23" style="edgeStyle=orthogonalEdgeStyle;rounded=0;orthogonalLoop=1;jettySize=auto;html=1;exitX=0.75;exitY=0.5;exitDx=0;exitDy=0;exitPerimeter=0;" edge="1" parent="1" source="Ba2wZf8MUgnOTTPcZdg_-25">
          <mxGeometry relative="1" as="geometry">
            <Array as="points">
              <mxPoint x="489" y="330" />
              <mxPoint x="700" y="330" />
            </Array>
            <mxPoint x="700" y="430" as="targetPoint" />
          </mxGeometry>
        </mxCell>
        <mxCell id="Ba2wZf8MUgnOTTPcZdg_-25" value="" style="shape=line;html=1;strokeWidth=6;strokeColor=#000000;" vertex="1" parent="1">
          <mxGeometry x="395" y="285" width="125" height="10" as="geometry" />
        </mxCell>
        <mxCell id="Ba2wZf8MUgnOTTPcZdg_-27" value="&lt;p style=&quot;margin: 0px ; margin-top: 4px ; text-align: center&quot;&gt;&lt;b&gt;Elevador estacionado&lt;/b&gt;&lt;/p&gt;&lt;hr size=&quot;1&quot;&gt;&lt;div style=&quot;height: 2px&quot;&gt;&lt;/div&gt;&lt;hr size=&quot;1&quot;&gt;&lt;div style=&quot;height: 2px&quot;&gt;&lt;/div&gt;" style="verticalAlign=top;align=left;overflow=fill;fontSize=12;fontFamily=Helvetica;html=1;strokeColor=#000000;" vertex="1" parent="1">
          <mxGeometry x="690" y="130" width="140" height="60" as="geometry" />
        </mxCell>
        <mxCell id="Ba2wZf8MUgnOTTPcZdg_-57" value="&lt;p style=&quot;margin: 0px ; margin-top: 4px ; text-align: center&quot;&gt;&lt;b&gt;Despertador sem alarme&lt;/b&gt;&lt;/p&gt;&lt;p style=&quot;margin: 0px ; margin-top: 4px ; text-align: center&quot;&gt;&lt;b&gt;definido&lt;/b&gt;&lt;/p&gt;&lt;hr size=&quot;1&quot;&gt;&lt;div style=&quot;height: 2px&quot;&gt;&lt;/div&gt;&lt;hr size=&quot;1&quot;&gt;&lt;div style=&quot;height: 2px&quot;&gt;&lt;/div&gt;" style="verticalAlign=top;align=left;overflow=fill;fontSize=12;fontFamily=Helvetica;html=1;strokeColor=#000000;" vertex="1" parent="1">
          <mxGeometry x="190" y="260" width="140" height="60" as="geometry" />
        </mxCell>
      </root>
    </mxGraphModel>
  </diagram>
</mxfile>
